<?xml version="1.0" encoding="UTF-8"?>
<svg version="1.1" xmlns="http://www.w3.org/2000/svg" width="320" height="320">
<path d="M0 0 C3.15213716 2.01736778 4.47894344 3.36427815 5.6171875 6.9375 C6.51253674 11.76142246 5.53868929 14.02639937 3 18 C4.1647788 21.35980908 5.96821652 23.03585181 8.7734375 25.12890625 C9.5159375 25.68900391 10.2584375 26.24910156 11.0234375 26.82617188 C11.79945313 27.39916016 12.57546875 27.97214844 13.375 28.5625 C14.14328125 29.13935547 14.9115625 29.71621094 15.703125 30.31054688 C17.79687229 31.88085734 19.89777974 33.44106469 22 35 C22.67240723 35.54906006 23.34481445 36.09812012 24.03759766 36.66381836 C26.08302177 38.28144711 26.08302177 38.28144711 29.4375 38.375 C33.89116599 39.15634491 35.29862089 40.42464529 38 44 C39.41772152 49.16455696 39.41772152 49.16455696 38 52 C39.19625 51.67 40.3925 51.34 41.625 51 C45.15791497 50.10734177 48.34079109 49.81703955 52 50 C52.99 53.63 53.98 57.26 55 61 C50.05 62.485 50.05 62.485 45 64 C45 67.66752497 46.07131081 69.41597006 47.7734375 72.65625 C48.3509375 73.76097656 48.9284375 74.86570312 49.5234375 76.00390625 C50.43996094 77.73447266 50.43996094 77.73447266 51.375 79.5 C51.97828125 80.65371094 52.5815625 81.80742187 53.203125 82.99609375 C56.39300379 89.12042323 56.39300379 89.12042323 60 95 C60 96.875 60 96.875 59 99 C56.1875 101.8125 56.1875 101.8125 53 104 C50.50546429 103.80017469 49.38923449 103.41183795 47.66308594 101.58544922 C47.27411133 100.99779785 46.88513672 100.41014648 46.484375 99.8046875 C46.03707031 99.17175781 45.58976563 98.53882813 45.12890625 97.88671875 C44.21093447 96.54746814 43.3071466 95.19838235 42.41796875 93.83984375 C41.04227119 91.92327365 39.89371775 90.41289985 38 89 C34.99578563 88.71108057 32.9813338 89.23867227 30 90 C29.89042969 90.76183594 29.78085938 91.52367187 29.66796875 92.30859375 C29.50941406 93.34113281 29.35085937 94.37367188 29.1875 95.4375 C28.96126953 96.95150391 28.96126953 96.95150391 28.73046875 98.49609375 C27.84279918 102.75405953 26.37543556 106.87369331 25 111 C18.07 111 11.14 111 4 111 C1.05816228 103.87971137 -1.46221357 96.72930058 -3.75 89.375 C-4.06582031 88.37082031 -4.38164062 87.36664063 -4.70703125 86.33203125 C-5.47480845 83.88910378 -6.23790272 81.44470533 -7 79 C-6.505 87.415 -6.505 87.415 -6 96 C-7.65 95.67 -9.3 95.34 -11 95 C-11.06058594 96.07121094 -11.12117188 97.14242187 -11.18359375 98.24609375 C-11.26798537 99.64324391 -11.35263406 101.04037857 -11.4375 102.4375 C-11.47681641 103.14455078 -11.51613281 103.85160156 -11.55664062 104.58007812 C-11.88671875 109.88671875 -11.88671875 109.88671875 -13 111 C-14.34267413 111.08631874 -15.68974322 111.10706473 -17.03515625 111.09765625 C-17.84404297 111.09443359 -18.65292969 111.09121094 -19.48632812 111.08789062 C-20.33646484 111.07951172 -21.18660156 111.07113281 -22.0625 111.0625 C-22.91650391 111.05798828 -23.77050781 111.05347656 -24.65039062 111.04882812 C-26.76695663 111.03700373 -28.88348685 111.01906769 -31 111 C-30.855625 109.75863281 -30.71125 108.51726562 -30.5625 107.23828125 C-30.37485311 105.59637095 -30.18736126 103.95444292 -30 102.3125 C-29.90460938 101.49587891 -29.80921875 100.67925781 -29.7109375 99.83789062 C-29.26129478 95.87139948 -28.86965457 91.99997537 -29 88 C-29.35827881 88.47945068 -29.71655762 88.95890137 -30.08569336 89.45288086 C-31.70213265 91.61504223 -33.31979979 93.77628189 -34.9375 95.9375 C-35.50146484 96.69224609 -36.06542969 97.44699219 -36.64648438 98.22460938 C-37.18466797 98.94326172 -37.72285156 99.66191406 -38.27734375 100.40234375 C-38.77484131 101.06741943 -39.27233887 101.73249512 -39.78491211 102.41772461 C-41 104 -41 104 -42 105 C-43.99958364 105.04080783 -46.00045254 105.04254356 -48 105 C-47.67 106.98 -47.34 108.96 -47 111 C-51.29 111 -55.58 111 -60 111 C-61.50384403 106.87636418 -63.003239 102.751206 -64.5 98.625 C-64.92925781 97.449375 -65.35851562 96.27375 -65.80078125 95.0625 C-66.20683594 93.94101563 -66.61289063 92.81953125 -67.03125 91.6640625 C-67.40830078 90.62717285 -67.78535156 89.5902832 -68.17382812 88.52197266 C-69 86 -69 86 -69 84 C-71.64 84.33 -74.28 84.66 -77 85 C-77.176521 85.71655762 -77.35304199 86.43311523 -77.53491211 87.17138672 C-78.33332819 90.40653403 -79.13536747 93.64077225 -79.9375 96.875 C-80.21529297 98.00292969 -80.49308594 99.13085938 -80.77929688 100.29296875 C-81.04677734 101.36933594 -81.31425781 102.44570312 -81.58984375 103.5546875 C-81.83597412 104.54968262 -82.08210449 105.54467773 -82.33569336 106.56982422 C-83 109 -83 109 -84 111 C-88.29 111 -92.58 111 -97 111 C-94.95838673 102.5537319 -92.92608728 94.19304439 -90 86 C-92.31 86 -94.62 86 -97 86 C-93.36170557 73.20728734 -89.27783578 60.59245026 -85 48 C-85.46897705 48.36875244 -85.9379541 48.73750488 -86.42114258 49.11743164 C-88.54342743 50.77655795 -90.67763889 52.41959313 -92.8125 54.0625 C-93.55048828 54.64322266 -94.28847656 55.22394531 -95.04882812 55.82226562 C-95.76103516 56.36689453 -96.47324219 56.91152344 -97.20703125 57.47265625 C-98.18893433 58.23461304 -98.18893433 58.23461304 -99.19067383 59.01196289 C-99.78775146 59.33801514 -100.3848291 59.66406738 -101 60 C-105.06540996 58.64486335 -105.97300269 56.69203082 -108 53 C-107.80474658 50.26109348 -107.26916062 49.25568171 -105.26928711 47.35595703 C-104.15952515 46.56487549 -104.15952515 46.56487549 -103.02734375 45.7578125 C-102.20943359 45.16613281 -101.39152344 44.57445312 -100.54882812 43.96484375 C-99.68708984 43.35769531 -98.82535156 42.75054687 -97.9375 42.125 C-96.25892401 40.91953616 -94.58053681 39.71380938 -92.90234375 38.5078125 C-92.08491699 37.92547852 -91.26749023 37.34314453 -90.42529297 36.74316406 C-86.909349 34.21610146 -83.45008252 31.61597681 -80 29 C-81.32 27.35 -82.64 25.7 -84 24 C-83.03900391 23.65582031 -83.03900391 23.65582031 -82.05859375 23.3046875 C-79.78474407 22.18168816 -79.78474407 22.18168816 -79.34765625 19.7578125 C-79.20650391 18.45457031 -79.20650391 18.45457031 -79.0625 17.125 C-78.45996762 13.49932689 -78.20732238 12.24187611 -75.75 9.375 C-72.49681123 7.74840562 -70.59466995 7.54110596 -67 8 C-64.32379206 8.96262847 -63.25950241 9.48970981 -61.953125 12.05859375 C-61.60507813 13.23615234 -61.60507813 13.23615234 -61.25 14.4375 C-61.00765625 15.21996094 -60.7653125 16.00242187 -60.515625 16.80859375 C-60 19 -60 19 -60 22 C-58.68 22.66 -57.36 23.32 -56 24 C-57.32 25.65 -58.64 27.3 -60 29 C-57.78739139 30.89823256 -55.55856782 32.76711373 -53.3125 34.625 C-52.37374023 35.43710938 -52.37374023 35.43710938 -51.41601562 36.265625 C-50.80048828 36.76835938 -50.18496094 37.27109375 -49.55078125 37.7890625 C-48.71027222 38.49603271 -48.71027222 38.49603271 -47.8527832 39.21728516 C-45.95574612 40.24058661 -45.95574612 40.24058661 -43.67773438 39.39208984 C-40.52487008 37.75299136 -37.55696814 35.90834153 -34.60546875 33.9375 C-34.01325027 33.54554443 -33.4210318 33.15358887 -32.81086731 32.74975586 C-31.56807062 31.92503528 -30.32685686 31.09792487 -29.0871582 30.26855469 C-27.181485 28.9959833 -25.26789367 27.7359895 -23.35351562 26.4765625 C-22.14533538 25.67262283 -20.93763546 24.86796075 -19.73046875 24.0625 C-18.8681086 23.49680298 -18.8681086 23.49680298 -17.98832703 22.91967773 C-16.62245317 21.99827977 -15.3053641 21.00529109 -14 20 C-13.83245985 17.77005114 -13.83245985 17.77005114 -15.5625 15.3125 C-17.33677918 11.22394363 -17.23867369 9.25794082 -16 5 C-12.08774349 -1.12920187 -6.67329988 -1.22243631 0 0 Z M-22 39 C-23.83863505 40.11631414 -25.67079723 41.24329627 -27.5 42.375 C-28.5209375 43.00148438 -29.541875 43.62796875 -30.59375 44.2734375 C-31.3878125 44.84320313 -32.181875 45.41296875 -33 46 C-33 46.66 -33 47.32 -33 48 C-29.13236554 49.87543354 -29.13236554 49.87543354 -25 49 C-23.25327015 45.5065403 -22 42.93154432 -22 39 Z M6 40 C6 48.25 6 56.5 6 65 C10.0116196 65 12.42093858 63.09512932 15.6875 61 C16.29400391 60.6184375 16.90050781 60.236875 17.52539062 59.84375 C19.02071199 58.90181528 20.51086593 57.95168625 22 57 C19.53442422 48.47897009 14.43305542 44.50897742 7 40 C6.67 40 6.34 40 6 40 Z M-59 45 C-56.34121828 57.43240391 -53.31975398 69.72779471 -50 82 C-52.31 82 -54.62 82 -57 82 C-55.02 87.94 -53.04 93.88 -51 100 C-47.81761259 96.02201574 -45.58565945 92.63423626 -43.25 88.1875 C-42.63640625 87.02605469 -42.0228125 85.86460937 -41.390625 84.66796875 C-40.70226562 83.34732422 -40.70226562 83.34732422 -40 82 C-42.31 81.34 -44.62 80.68 -47 80 C-42.1163329 74.09563077 -36.8280757 68.96906227 -31 64 C-33.88520809 60.92888169 -36.85528385 58.61940967 -40.38671875 56.328125 C-41.40701172 55.66425781 -42.42730469 55.00039062 -43.47851562 54.31640625 C-44.53748047 53.63449219 -45.59644531 52.95257813 -46.6875 52.25 C-47.75806641 51.55261719 -48.82863281 50.85523438 -49.93164062 50.13671875 C-54.18595533 46.79995806 -54.18595533 46.79995806 -59 45 Z M13.9375 74 C12.83728516 74.556875 12.83728516 74.556875 11.71484375 75.125 C10.86599609 75.558125 10.86599609 75.558125 10 76 C10.61044328 83.63054095 12.79621821 90.70189474 15 98 C15.33 98 15.66 98 16 98 C16.50682442 94.98017116 17.00563335 91.95937183 17.5 88.9375 C17.71462891 87.66616211 17.71462891 87.66616211 17.93359375 86.36914062 C18.72200421 81.50727611 19.16037074 76.92471814 19 72 C17.15568588 72 15.54984601 73.1810306 13.9375 74 Z " fill="#0083C6" transform="translate(184,70)"/>
<path d="M0 0 C3.39614632 2.51019511 4.75422036 4.1046599 5.875 8.1875 C6 11 6 11 5 13 C6.19625 12.67 7.3925 12.34 8.625 12 C12.15791497 11.10734177 15.34079109 10.81703955 19 11 C19.99 14.63 20.98 18.26 22 22 C17.05 23.485 17.05 23.485 12 25 C12 28.66752497 13.07131081 30.41597006 14.7734375 33.65625 C15.3509375 34.76097656 15.9284375 35.86570313 16.5234375 37.00390625 C17.13445312 38.15761719 17.74546875 39.31132812 18.375 40.5 C18.97828125 41.65371094 19.5815625 42.80742187 20.203125 43.99609375 C23.39300379 50.12042323 23.39300379 50.12042323 27 56 C27 57.875 27 57.875 26 60 C23.1875 62.8125 23.1875 62.8125 20 65 C17.50546429 64.80017469 16.38923449 64.41183795 14.66308594 62.58544922 C14.07962402 61.70397217 14.07962402 61.70397217 13.484375 60.8046875 C13.03707031 60.17175781 12.58976562 59.53882813 12.12890625 58.88671875 C11.21093447 57.54746814 10.3071466 56.19838235 9.41796875 54.83984375 C8.04227119 52.92327365 6.89371775 51.41289985 5 50 C1.99578563 49.71108057 -0.0186662 50.23867227 -3 51 C-3.10957031 51.76183594 -3.21914062 52.52367187 -3.33203125 53.30859375 C-3.56986328 54.85740234 -3.56986328 54.85740234 -3.8125 56.4375 C-3.96332031 57.44683594 -4.11414063 58.45617187 -4.26953125 59.49609375 C-5.15720082 63.75405953 -6.62456444 67.87369331 -8 72 C-14.93 72 -21.86 72 -29 72 C-31.94183772 64.87971137 -34.46221357 57.72930058 -36.75 50.375 C-37.06582031 49.37082031 -37.38164062 48.36664063 -37.70703125 47.33203125 C-38.47480845 44.88910378 -39.23790272 42.44470533 -40 40 C-39.505 48.415 -39.505 48.415 -39 57 C-40.65 56.67 -42.3 56.34 -44 56 C-44.09087891 57.60681641 -44.09087891 57.60681641 -44.18359375 59.24609375 C-44.26798537 60.64324391 -44.35263406 62.04037857 -44.4375 63.4375 C-44.47681641 64.14455078 -44.51613281 64.85160156 -44.55664062 65.58007812 C-44.88671875 70.88671875 -44.88671875 70.88671875 -46 72 C-47.34267413 72.08631874 -48.68974322 72.10706473 -50.03515625 72.09765625 C-50.84404297 72.09443359 -51.65292969 72.09121094 -52.48632812 72.08789062 C-53.33646484 72.07951172 -54.18660156 72.07113281 -55.0625 72.0625 C-55.91650391 72.05798828 -56.77050781 72.05347656 -57.65039062 72.04882812 C-59.76695663 72.03700373 -61.88348685 72.01906769 -64 72 C-63.855625 70.75863281 -63.71125 69.51726562 -63.5625 68.23828125 C-63.37485311 66.59637095 -63.18736126 64.95444292 -63 63.3125 C-62.90460938 62.49587891 -62.80921875 61.67925781 -62.7109375 60.83789062 C-62.26129478 56.87139948 -61.86965457 52.99997537 -62 49 C-62.35827881 49.47945068 -62.71655762 49.95890137 -63.08569336 50.45288086 C-64.70213265 52.61504223 -66.31979979 54.77628189 -67.9375 56.9375 C-68.50146484 57.69224609 -69.06542969 58.44699219 -69.64648438 59.22460938 C-70.18466797 59.94326172 -70.72285156 60.66191406 -71.27734375 61.40234375 C-72.02359009 62.39995728 -72.02359009 62.39995728 -72.78491211 63.41772461 C-74 65 -74 65 -75 66 C-81.52542373 66.23728814 -81.52542373 66.23728814 -84 65 C-83.52195518 59.41991316 -81.35840734 55.74119659 -78.4375 51.125 C-78.01275391 50.43664062 -77.58800781 49.74828125 -77.15039062 49.0390625 C-76.1089225 47.35399048 -75.05564084 45.67622969 -74 44 C-75.98 43.01 -77.96 42.02 -80 41 C-76.96900954 34.20998706 -70.68240917 29.57364641 -65 25 C-66.97827687 22.91691376 -68.93007597 21.27362163 -71.35546875 19.73828125 C-71.97744141 19.34189453 -72.59941406 18.94550781 -73.24023438 18.53710938 C-73.88283203 18.13298828 -74.52542969 17.72886719 -75.1875 17.3125 C-76.16879883 16.68891602 -76.16879883 16.68891602 -77.16992188 16.05273438 C-78.77775809 15.0316997 -80.38858764 14.01538137 -82 13 C-80.68753462 9.55905814 -79.33411133 6.86459118 -77 4 C-73.98374271 4.6551147 -71.40680393 5.67254269 -68.625 7 C-65.08348442 8.61563355 -61.90476299 9.59951149 -58 10 C-57.9175 9.071875 -57.835 8.14375 -57.75 7.1875 C-57 4 -57 4 -55.3125 2.125 C-52.29246779 0.65579514 -50.32368343 0.58453957 -47 1 C-44.859375 2.13671875 -44.859375 2.13671875 -43 4 C-42.390625 6.91796875 -42.390625 6.91796875 -42.25 10.1875 C-42.19328125 11.27417969 -42.1365625 12.36085938 -42.078125 13.48046875 C-42.05234375 14.31191406 -42.0265625 15.14335938 -42 16 C-42.99 16.33 -43.98 16.66 -45 17 C-43.35621849 18.69514969 -41.69157354 20.35315557 -40 22 C-39.360625 22.63550781 -38.72125 23.27101562 -38.0625 23.92578125 C-37.0415625 24.89064453 -37.0415625 24.89064453 -36 25.875 C-35.360625 26.49117187 -34.72125 27.10734375 -34.0625 27.7421875 C-32.05019929 29.23062745 -32.05019929 29.23062745 -29.52734375 28.90234375 C-26.68200153 27.88646423 -24.88056635 26.61715595 -22.5625 24.6875 C-19.14111149 21.90690666 -15.70974847 19.37804389 -12 17 C-12.99 15.515 -12.99 15.515 -14 14 C-14.34130656 10.20296447 -14.02478134 6.49590565 -11.8359375 3.30078125 C-8.11228761 -0.17396156 -4.9060958 -0.89201742 0 0 Z M-19.0625 35 C-20.16271484 35.556875 -20.16271484 35.556875 -21.28515625 36.125 C-22.13400391 36.558125 -22.13400391 36.558125 -23 37 C-22.38955672 44.63054095 -20.20378179 51.70189474 -18 59 C-17.67 59 -17.34 59 -17 59 C-16.49317558 55.98017116 -15.99436665 52.95937183 -15.5 49.9375 C-15.28537109 48.66616211 -15.28537109 48.66616211 -15.06640625 47.36914062 C-14.27799579 42.50727611 -13.83962926 37.92471814 -14 33 C-15.84431412 33 -17.45015399 34.1810306 -19.0625 35 Z " fill="#32B7E9" transform="translate(217,109)"/>
<path d="M0 0 C1 1 1 1 1.09765625 3.72265625 C1.08605469 4.82480469 1.07445312 5.92695313 1.0625 7.0625 C1.05347656 8.16722656 1.04445312 9.27195313 1.03515625 10.41015625 C1.02355469 11.26480469 1.01195312 12.11945313 1 13 C-5.58666667 12.11333333 -5.58666667 12.11333333 -7.9375 11.46875 C-10.26967051 10.93871125 -12.36133773 10.90237261 -14.75 10.9375 C-15.94882813 10.95103516 -15.94882813 10.95103516 -17.171875 10.96484375 C-17.77515625 10.97644531 -18.3784375 10.98804688 -19 11 C-19.33 12.65 -19.66 14.3 -20 16 C-19.01 16.54527344 -18.02 17.09054688 -17 17.65234375 C-7.08280359 23.25995342 1.51189029 29.06023257 6 40 C6.45375 39.2575 6.9075 38.515 7.375 37.75 C11.61353806 33.30962679 16.76434843 31.27696474 22.875 30.75390625 C25.26492614 30.75051147 27.61763651 30.81752109 30 31 C29.23025247 28.3202093 29.23025247 28.3202093 27 26 C20.60965677 24.7811012 14.18202732 26.40463811 8 28 C8 24.37 8 20.74 8 17 C16.96080501 13.15965499 28.34856284 12.03975317 37.75 15.25 C41.522868 17.28154431 44.07157134 19.14314269 46 23 C46.15344209 24.88472859 46.24959571 26.77427874 46.31640625 28.6640625 C46.35830078 29.78554687 46.40019531 30.90703125 46.44335938 32.0625 C46.48267578 33.238125 46.52199219 34.41375 46.5625 35.625 C46.60568359 36.80835938 46.64886719 37.99171875 46.69335938 39.2109375 C46.79967426 42.14050328 46.90170642 45.07015588 47 48 C48.485 48.495 48.485 48.495 50 49 C50 52.63 50 56.26 50 60 C47.43721301 60.05420701 44.87558517 60.09377007 42.3125 60.125 C41.59126953 60.14175781 40.87003906 60.15851563 40.12695312 60.17578125 C35.86304828 60.21472102 32.90655818 59.56262327 29 58 C28.01 58.66 27.02 59.32 26 60 C20.18583519 60.66758101 14.78419368 60.769049 9.375 58.4375 C6.43330988 55.41839699 5.3720805 52.9637881 4 49 C3.54625 49.886875 3.0925 50.77375 2.625 51.6875 C-0.45846487 56.22279355 -4.92013338 58.23585341 -10 60 C-14.341143 60.58029565 -18.56676402 60.524207 -22.9375 60.375 C-24.05962891 60.36082031 -25.18175781 60.34664062 -26.33789062 60.33203125 C-34.44196429 60.1860119 -34.44196429 60.1860119 -38 59 C-38 54.38 -38 49.76 -38 45 C-35.0609375 45.7734375 -35.0609375 45.7734375 -32.0625 46.5625 C-26.21906076 47.9085324 -21.84746693 48.34204159 -16 47 C-15.34 46.01 -14.68 45.02 -14 44 C-17.01888349 39.7119839 -20.42145309 37.28986317 -24.875 34.6875 C-31.14989236 30.81009391 -36.46804063 27.13918928 -38.671875 19.74609375 C-39.5686102 14.44638871 -38.81926311 10.66940452 -36 6 C-26.53514829 -4.34696635 -12.69034176 -3.65653915 0 0 Z M21 44 C21.33 45.32 21.66 46.64 22 48 C24.34533951 48.76956136 24.34533951 48.76956136 27 49 C28.93654948 47.98029682 28.93654948 47.98029682 30 46 C30.25069913 43.37429296 30.25069913 43.37429296 30 41 C25.72290301 41 24.44069624 41.70620251 21 44 Z " fill="#0083C6" transform="translate(139,190)"/>
<path d="M0 0 C5.61 0 11.22 0 17 0 C17 20.46 17 40.92 17 62 C11.39 62 5.78 62 0 62 C-0.33 60.68 -0.66 59.36 -1 58 C-1.68320312 58.64710938 -2.36640625 59.29421875 -3.0703125 59.9609375 C-8.23789246 63.55757315 -13.95459178 62.90437637 -20 62 C-24.38210863 60.0153756 -26.90326122 56.79039452 -28.9375 52.5 C-31.55295742 43.96707017 -31.07432703 34.21626431 -27.34375 26.12890625 C-24.5371077 21.68233633 -20.97623714 18.65874571 -16 17 C-13.94921875 16.83203125 -13.94921875 16.83203125 -11.6875 16.8125 C-10.94886719 16.79832031 -10.21023438 16.78414062 -9.44921875 16.76953125 C-7 17 -7 17 -1 19 C-0.67 12.73 -0.34 6.46 0 0 Z M-8.5625 29.875 C-11.86551456 34.10963405 -12.17379823 37.71653395 -12 43 C-11.10321771 46.31119615 -10.41075051 47.58924949 -8 50 C-4.96655046 49.91115 -4.96655046 49.91115 -2 49 C0.40396504 45.39405244 0.3670541 42.67159744 0.375 38.5 C0.39949219 37.82324219 0.42398437 37.14648438 0.44921875 36.44921875 C0.46874607 33.14910127 0.44048348 31.45679768 -1.8984375 29.03125 C-5.13252521 27.44426272 -5.58412692 27.69570263 -8.5625 29.875 Z " fill="#0083C6" transform="translate(287,188)"/>
<path d="M0 0 C13.2 0 26.4 0 40 0 C40 3.96 40 7.92 40 12 C32.41 12 24.82 12 17 12 C17 16.62 17 21.24 17 26 C23.27 26 29.54 26 36 26 C36 29.63 36 33.26 36 37 C29.73 37 23.46 37 17 37 C17 41.29 17 45.58 17 50 C25.25 50 33.5 50 42 50 C42 53.96 42 57.92 42 62 C28.14 62 14.28 62 0 62 C0 41.54 0 21.08 0 0 Z " fill="#0083C6" transform="translate(16,188)"/>
<path d="M0 0 C5.61 0 11.22 0 17 0 C17.495 15.345 17.495 15.345 18 31 C19.65 30.67 21.3 30.34 23 30 C25.32452624 26.51321064 25.29773734 24.93032429 25.4140625 20.80078125 C25.45273438 19.59228516 25.49140625 18.38378906 25.53125 17.13867188 C25.5621875 15.87603516 25.593125 14.61339844 25.625 13.3125 C25.66367188 12.03826172 25.70234375 10.76402344 25.7421875 9.45117188 C25.83657398 6.30102306 25.91938035 3.1505312 26 0 C31.61 0 37.22 0 43 0 C43 14.52 43 29.04 43 44 C37.39 44 31.78 44 26 44 C26 42.68 26 41.36 26 40 C25.29875 40.66 24.5975 41.32 23.875 42 C18.67318645 45.48035007 11.94674809 44.85466549 6 44 C2.88168477 42.33648932 1.57353065 40.14706129 0 37 C-0.08683445 34.22839374 -0.1155579 31.48225235 -0.09765625 28.7109375 C-0.0962413 27.89251373 -0.09482635 27.07408997 -0.09336853 26.23086548 C-0.0877629 23.61220675 -0.07520948 20.99363296 -0.0625 18.375 C-0.05748572 16.60156373 -0.05292269 14.82812613 -0.04882812 13.0546875 C-0.03864174 8.70306581 -0.0190675 4.35162818 0 0 Z " fill="#0083C6" transform="translate(212,206)"/>
<path d="M0 0 C0.87591797 0.00128906 1.75183594 0.00257813 2.65429688 0.00390625 C7.51243438 0.07020381 10.10735548 0.49294219 14.8125 2.375 C14.8125 6.335 14.8125 10.295 14.8125 14.375 C13.69875 14.045 12.585 13.715 11.4375 13.375 C6.54795777 12.13070789 1.82672385 12.19004912 -3.1875 12.375 C-3.5175 13.035 -3.8475 13.695 -4.1875 14.375 C-3.5584375 14.53355469 -2.929375 14.69210938 -2.28125 14.85546875 C6.01140436 17.1159664 12.8600381 20.04535638 17.8125 27.375 C19.24554064 30.24108129 19.11894155 32.18800783 18.8125 35.375 C15.84504482 41.08164457 11.90815128 44.34311624 5.8125 46.375 C4.09833065 46.46848732 2.38077796 46.50569869 0.6640625 46.5078125 C-0.34140625 46.50910156 -1.346875 46.51039063 -2.3828125 46.51171875 C-3.95675781 46.50591797 -3.95675781 46.50591797 -5.5625 46.5 C-6.6040625 46.50386719 -7.645625 46.50773437 -8.71875 46.51171875 C-9.72679688 46.51042969 -10.73484375 46.50914062 -11.7734375 46.5078125 C-13.15088135 46.50612061 -13.15088135 46.50612061 -14.55615234 46.50439453 C-17.1875 46.375 -17.1875 46.375 -22.1875 45.375 C-22.1875 41.085 -22.1875 36.795 -22.1875 32.375 C-13.46955128 34.29807692 -13.46955128 34.29807692 -11.125 34.9375 C-8.15305865 35.60858353 -5.21997981 35.43331692 -2.1875 35.375 C-2.1875 34.715 -2.1875 34.055 -2.1875 33.375 C-3.74210937 32.59576172 -3.74210937 32.59576172 -5.328125 31.80078125 C-6.69822854 31.09696094 -8.06800302 30.39249983 -9.4375 29.6875 C-10.11941406 29.34783203 -10.80132812 29.00816406 -11.50390625 28.65820312 C-16.40868413 26.11057578 -19.6541178 23.44176439 -22.1875 18.375 C-22.56773402 13.81219181 -22.61488029 11.30099062 -20.6875 7.125 C-14.84705291 0.7005082 -8.3688306 -0.23714807 0 0 Z " fill="#0083C6" transform="translate(81.1875,203.625)"/>
<path d="M0 0 C5.94 0 11.88 0 18 0 C18 20.46 18 40.92 18 62 C12.06 62 6.12 62 0 62 C0 41.54 0 21.08 0 0 Z " fill="#0083C6" transform="translate(190,188)"/>
<path d="M0 0 C2.51681526 0.41946921 4.62663215 0.79464768 6.875 2.03125 C9.34819824 3.15873743 11.04866023 3.20445117 13.75 3.125 C14.94882813 3.09792969 14.94882813 3.09792969 16.171875 3.0703125 C17.07679688 3.03550781 17.07679688 3.03550781 18 3 C19.05203647 6.59577997 20.06057657 10.20246547 21.0625 13.8125 C21.35705078 14.81732422 21.65160156 15.82214844 21.95507812 16.85742188 C23.91456486 24.02683806 24.06210015 29.63812871 23 37 C19.37 37 15.74 37 12 37 C8.86724865 29.43623998 6.2199891 21.80333593 3.75 14 C3.38648438 12.86949219 3.02296875 11.73898438 2.6484375 10.57421875 C0 2.26051457 0 2.26051457 0 0 Z " fill="#0083C6" transform="translate(176,144)"/>
<path d="M0 0 C2.38564077 0.57584432 4.66682784 1.22227595 7 2 C7.33 9.26 7.66 16.52 8 24 C4.37 24 0.74 24 -3 24 C-2.68957083 21.12476286 -2.37672481 18.24982273 -2.0625 15.375 C-1.97548828 14.56675781 -1.88847656 13.75851563 -1.79882812 12.92578125 C-1.32290463 8.58958942 -0.77162811 4.29609164 0 0 Z " fill="#0083C6" transform="translate(156,157)"/>
</svg>
